<?xml version="1.0" standalone="no"?>
<!DOCTYPE svg PUBLIC "-//W3C//DTD SVG 20010904//EN"
 "http://www.w3.org/TR/2001/REC-SVG-20010904/DTD/svg10.dtd">
<svg version="1.0" xmlns="http://www.w3.org/2000/svg"
 width="300.000000pt" height="300.000000pt" viewBox="0 0 300.000000 300.000000"
 preserveAspectRatio="xMidYMid meet">
<metadata>
Created by potrace 1.11, written by Peter Selinger 2001-2013
</metadata>
<g transform="translate(0.000000,300.000000) scale(0.100000,-0.100000)"
fill="#000000" stroke="none">
<path d="M1457 2864 c-1 -1 -31 -4 -67 -8 -106 -10 -152 -17 -210 -32 -30 -8
-62 -17 -70 -19 -79 -20 -220 -82 -304 -132 -420 -252 -667 -689 -667 -1180 0
-50 2 -107 5 -125 3 -18 8 -54 11 -79 12 -104 74 -300 128 -404 144 -276 354
-482 629 -614 95 -46 288 -106 376 -118 75 -10 352 -10 424 0 82 11 279 72
374 116 395 185 687 573 758 1008 15 87 16 386 2 443 -3 14 -11 50 -17 80 -6
30 -27 100 -46 155 -117 339 -367 617 -695 773 -91 44 -288 108 -359 116 -81
10 -267 24 -272 20z"/>
</g>
</svg>
